<svg xmlns="http://www.w3.org/2000/svg" viewBox="5.99 5.94 388.11 388.26"><circle cx="200" cy="200" r="192" fill="#ffffff"/><g transform="translate(200, 200) translate(-239.5, -239.5) scale(0.4677734375) translate(0, 0)"><path xmlns="http://www.w3.org/2000/svg" fill="#fbfbfb" fill-rule="evenodd" stroke="#fbfbfb" d="M478 98.657C355.415 110.198 244.785 173.975 173.842 274c-111.8 157.631-98.225 373.298 32.491 516.179C302.907 895.741 440.368 943.451 581.5 920.393c167.433-27.356 305.865-163.556 337.386-331.949 8.731-46.644 9.291-96.607 1.612-143.944C891.286 264.415 742.935 122.824 560 100.429c-12.992-1.59-70.685-2.837-82-1.772m4 13.472C301.066 126.78 151.725 260.687 118.568 438c-5.43 29.035-6.04 36.298-6.055 72-.016 41.699 2.332 62.843 10.939 98.485 19.337 80.081 67.627 156.889 133.048 211.621 50.032 41.857 113.046 72.169 176.5 84.904 247.011 49.571 479.762-141.039 479.291-392.51-.126-66.916-13.218-121.759-43.339-181.547C796.719 187.578 640.591 99.286 482 112.129m-33.399 133.465c-13.346 3.229-25.818 12.094-32.103 22.819-2.87 4.897-6.432 14.567-27.478 74.587-23.803 67.881-28.73 82.116-46.037 133-9.26 27.225-21.185 62.1-26.5 77.5-9.627 27.895-40.906 119.589-44.687 131-4.86 14.669-1.484 26.467 12.09 42.25l1.935 2.25h41.051c46.405 0 49.365-.404 61.378-8.378 12.781-8.483 16.429-14.531 26.267-43.542 8.865-26.14 10.061-28.696 16.717-35.734 12.755-13.486 12.843-13.5 84.465-13.141l58.801.295 6.569 3.215c14.991 7.336 18.796 13.264 29.617 46.146 8.192 24.892 10.468 29.289 19.486 37.638 13.705 12.688 17.666 13.468 68.56 13.486l40.232.015 5.004-6.75c14.152-19.088 14.136-21.782-.38-64.25-5.921-17.325-17.202-50.625-25.067-74-18.437-54.789-42.668-125.252-65.511-190.5-11.842-33.825-24.272-69.668-34.108-98.355-3.838-11.195-8.363-23.097-10.055-26.448-5.742-11.375-18.453-20.853-31.646-23.595-8.536-1.775-121.011-1.344-128.6.492m59.4 127.505c-7.549 3.083-7.541 3.065-26.223 58.901-19.453 58.141-19.329 57.39-10.803 65.5l3.154 3 37.186.266c35.727.255 37.313.187 40.444-1.741 4.574-2.816 7.233-7.614 7.237-13.059.004-4.534-27.692-89.535-33.234-102.001-2.342-5.265-7.565-10.949-10.089-10.979-.645-.007-2.073-.215-3.173-.46s-3.125.012-4.499.573" id="svg-el-0"/><path xmlns="http://www.w3.org/2000/svg" fill="#b1afae" fill-rule="evenodd" stroke="#b1afae" d="M479.5 99.029c-135.301 12.055-256.403 88.499-324.768 205.005-27.055 46.107-44.835 98.383-52.907 155.555-3.082 21.829-3.359 78.009-.493 99.911 9.476 72.405 33.289 134.46 73.121 190.548 134.019 188.715 392.619 232.328 578.513 97.566 129.741-94.054 193.542-250.095 166.5-407.214C888.605 261.095 737.817 120.067 556 100.458c-17.155-1.85-62.306-2.693-76.5-1.429m3 12.595c-57.255 5.819-98.068 16.971-144 39.346-162.053 78.945-251.784 252.656-221.445 428.696C145.119 742.501 271.858 873.005 433.5 905.513c69.021 13.881 145.414 8.56 210.5-14.664C779.806 842.393 880.758 724.715 906.378 585c10.116-55.166 8.135-117.366-5.457-171.345C861.141 255.67 726.498 136.249 563 113.937c-14.862-2.028-68.219-3.561-80.5-2.313m-17 133.432c-19.719.61-24.714 1.867-34.695 8.734-11.488 7.904-14.757 13.555-25.699 44.417-16.576 46.758-46.734 133.584-66.095 190.293-11.079 32.45-26.455 77.45-34.169 100-23.817 69.621-32.983 96.838-34.014 101-2.652 10.706.68 21.552 10.232 33.309l5.126 6.309 42.157-.346c47.257-.388 47.513-.424 59.48-8.36 13.099-8.686 16.375-14.141 26.67-44.412 10.523-30.944 14.775-37.34 29.507-44.39l6.5-3.11h125l6.722 3.373c14.067 7.06 18.272 13.738 28.73 45.627 9.79 29.851 14.68 37.228 30.136 45.466 10.312 5.497 15.189 5.997 58.593 6.017l39.181.017 5.697-8.084c14.002-19.868 14.516-15.948-12.573-95.916-12.204-36.025-22.99-67.975-23.97-71-4.688-14.47-32.277-94.449-55.193-160-13.306-38.062-23.307-66.891-33.997-98-8.727-25.397-10.679-29.583-17.031-36.534-5.84-6.39-11.314-9.861-20.081-12.735-6.62-2.17-70.443-3.089-116.214-1.675m39.554 129.109c-5.289 3.594-6.188 5.753-21.681 52.048-21.383 63.897-20.956 61.963-15.27 69.191 4.7 5.974 5.294 6.064 42.397 6.429 38.018.373 39.44.189 44.834-5.781 6.614-7.321 6.896-5.813-11.207-60.05-16.783-50.283-19.825-57.964-24.263-61.263-4.206-3.126-10.684-3.377-14.81-.574" id="svg-el-1"/><path xmlns="http://www.w3.org/2000/svg" fill="#252020" fill-rule="evenodd" stroke="#252020" d="M487.5 99.056C363.662 105.668 242.696 174.6 170.849 279.5c-66.774 97.492-88.171 219.436-58.812 335.179C161.814 810.918 351.275 943.561 553 923.402 736.551 905.059 888.921 762.859 919.355 581.5c7.87-46.898 7.296-103.725-1.495-148-25.816-130.02-112.314-240.304-232.36-296.256-49.982-23.296-96.967-34.917-154.5-38.213-19.071-1.092-22.625-1.09-43.5.025m-1.624 12.022C247.003 127.274 74.346 349.217 117.582 584.5c38.406 208.994 235.585 353.307 445.28 325.895 167.944-21.955 306.031-148.785 341.641-313.79 12.471-57.786 11.339-124.486-3.09-182.04C854.512 227.48 677.357 98.094 485.876 111.078m-38.242 135.508c-12.201 2.954-24.799 12.148-30.811 22.487-2.253 3.875-8.726 21.07-17.855 47.427-1.524 4.4-9.159 26.225-16.968 48.5-12.597 35.934-25.874 74.564-76.647 223-37.018 108.225-35.804 104.345-35.026 111.879.7 6.787 5.116 15.816 11.401 23.313l4.772 5.692 38 .041c49.995.053 57.21-1.507 71.121-15.378 7.778-7.756 10.102-12.435 18.413-37.077 8.321-24.672 9.958-28.206 16.248-35.088 12.224-13.376 12.144-13.362 79.218-13.89 59.705-.471 64.149-.214 72.937 4.217 14.317 7.218 18.253 13.345 28.116 43.763 8.017 24.723 10.795 30.641 17.561 37.406 14.556 14.557 21.657 16.113 73.386 16.091l37-.017 5.438-7.663c7.013-9.883 10.008-17.174 10.038-24.437.024-5.625-2.21-12.506-49.143-151.352-6.664-19.713-39.817-115.631-51.846-150-6.16-17.6-13.597-38.975-16.528-47.5-19.866-57.8-26.872-77.09-29.719-81.829-5.625-9.366-14.67-15.999-26.672-19.559-7.607-2.258-123.122-2.279-132.434-.026m55.034 129.54c-4.616 4.676-6.984 11.136-31.7 86.468-8.135 24.796-8.289 26.693-2.684 33.076 5.502 6.267 5.943 6.33 44.283 6.33 38.516 0 39.112-.09 44.14-6.683 5.281-6.924 5.088-7.855-12.556-60.431-20.422-60.853-20.893-61.785-31.65-62.678-5.417-.449-5.593-.379-9.833 3.918" id="svg-el-2"/><path xmlns="http://www.w3.org/2000/svg" fill="#050404" fill-rule="evenodd" stroke="#050404" d="M449.411 246.457c-12.592 2.795-24.726 11.126-31.434 21.579-3.235 5.041-6.774 14.46-25.16 66.964-27.414 78.282-31.342 89.634-54.663 158a131694 131694 0 0 1-33.479 98c-26.926 78.678-32.56 95.479-33.649 100.364-2.091 9.369 1.119 18.937 10.193 30.386l4.953 6.25h40.733c44.74 0 45.784-.114 57.414-6.271 14.259-7.549 18.948-14.798 29.519-45.628 8.998-26.247 12.257-32.427 20.749-39.357 11.755-9.592 8.7-9.202 74.784-9.54 60.916-.311 63.865-.14 73.324 4.245 13.272 6.152 18.314 13.95 27.883 43.123 8.621 26.284 11.728 32.679 19.185 39.495 14.455 13.211 17.681 13.88 67.139 13.934 21.779.023 40.13.033 40.779.021 1.525-.028 11.347-14.181 13.875-19.992 4.462-10.258 4.355-10.68-23.529-93.03-35.246-104.095-38.97-115.017-46.533-136.5a4262 4262 0 0 1-12.467-36c-6.281-18.485-32.639-94.252-38.962-112-2.155-6.05-7.151-20.45-11.101-32-12.505-36.565-17.281-43.377-35.464-50.583l-6-2.378-61-.217c-48.221-.172-62.276.066-67.089 1.135m56.551 126.793c-6.493 3.274-7.801 6.325-25.61 59.75-17.706 53.113-18.221 55.549-13.158 62.187 5.156 6.761 5.504 6.813 45.321 6.813 34.522 0 35.838-.071 39.481-2.118 4.816-2.707 8.004-8.317 8.004-14.085 0-5.185-30.28-96.826-34.748-105.163-2.709-5.053-9.01-9.634-13.252-9.634-.867 0-3.584 1.012-6.038 2.25" id="svg-el-3"/></g></svg>